<svg viewBox="0 0 760 428" xmlns="http://www.w3.org/2000/svg" role="img" aria-label="ClaudeFetch interface mockup" preserveAspectRatio="xMidYMid meet"><defs><linearGradient id="bg" x1="0" y1="0" x2="1" y2="1"><stop offset="0" stop-color="#0b0b20"/><stop offset="1" stop-color="#130a2a"/></linearGradient><linearGradient id="acc" x1="0" y1="0" x2="1" y2="0"><stop offset="0" stop-color="#D97757"/><stop offset="0.5" stop-color="#33E0FF"/><stop offset="1" stop-color="#C77DFF"/></linearGradient><linearGradient id="accv" x1="0" y1="1" x2="0" y2="0"><stop offset="0" stop-color="#D97757"/><stop offset="1" stop-color="#33E0FF"/></linearGradient></defs><rect x="1" y="1" width="758" height="426" rx="14" fill="url(#bg)" stroke="#D97757" stroke-opacity="0.35"/><rect x="1" y="1" width="758" height="34" rx="14" fill="#08081a"/><rect x="1" y="20" width="758" height="15" fill="#08081a"/><circle cx="24" cy="18" r="5" fill="#ff5f57"/><circle cx="42" cy="18" r="5" fill="#febc2e"/><circle cx="60" cy="18" r="5" fill="#28c840"/><text x="380" y="23" text-anchor="middle" fill="#9AA3C7" font-family="Segoe UI, sans-serif" font-size="12">ClaudeFetch</text><rect x="16" y="46" width="120" height="366" rx="8" fill="#0d0d24" stroke="#D97757" stroke-opacity="0.4"/><rect x="24" y="56" width="104" height="26" rx="8" fill="url(#acc)"/><text x="34" y="73" fill="#fff" font-family="Segoe UI, sans-serif" font-size="11" text-anchor="start" font-weight="700">URL Scan</text><rect x="24" y="90" width="104" height="26" rx="8" fill="#15153a"/><text x="34" y="107" fill="#9AA3C7" font-family="Segoe UI, sans-serif" font-size="11" text-anchor="start" font-weight="400">Search</text><rect x="24" y="124" width="104" height="26" rx="8" fill="#15153a"/><text x="34" y="141" fill="#9AA3C7" font-family="Segoe UI, sans-serif" font-size="11" text-anchor="start" font-weight="400">Files</text><rect x="150" y="52" width="108" height="78" rx="6" fill="url(#acc)" opacity="0.85"/><rect x="150" y="134" width="108" height="14" rx="8" fill="#11112a"/><text x="156" y="144" fill="#8a93bd" font-family="Segoe UI, sans-serif" font-size="8" text-anchor="start" font-weight="400">IMG_00.jpg</text><rect x="266" y="52" width="108" height="78" rx="6" fill="url(#accv)" opacity="0.85"/><rect x="264" y="50" width="112" height="82" rx="7" fill="none" stroke="#33E0FF" stroke-width="3"/><rect x="266" y="134" width="108" height="14" rx="8" fill="#11112a"/><text x="272" y="144" fill="#8a93bd" font-family="Segoe UI, sans-serif" font-size="8" text-anchor="start" font-weight="400">IMG_01.jpg</text><rect x="382" y="52" width="108" height="78" rx="6" fill="#1b1b3e" opacity="0.85"/><rect x="382" y="134" width="108" height="14" rx="8" fill="#11112a"/><text x="388" y="144" fill="#8a93bd" font-family="Segoe UI, sans-serif" font-size="8" text-anchor="start" font-weight="400">IMG_02.jpg</text><rect x="498" y="52" width="108" height="78" rx="6" fill="url(#acc)" opacity="0.85"/><rect x="498" y="134" width="108" height="14" rx="8" fill="#11112a"/><text x="504" y="144" fill="#8a93bd" font-family="Segoe UI, sans-serif" font-size="8" text-anchor="start" font-weight="400">IMG_03.jpg</text><rect x="614" y="52" width="108" height="78" rx="6" fill="url(#accv)" opacity="0.85"/><rect x="614" y="134" width="108" height="14" rx="8" fill="#11112a"/><text x="620" y="144" fill="#8a93bd" font-family="Segoe UI, sans-serif" font-size="8" text-anchor="start" font-weight="400">IMG_04.jpg</text><rect x="150" y="164" width="108" height="78" rx="6" fill="url(#accv)" opacity="0.85"/><rect x="150" y="246" width="108" height="14" rx="8" fill="#11112a"/><text x="156" y="256" fill="#8a93bd" font-family="Segoe UI, sans-serif" font-size="8" text-anchor="start" font-weight="400">IMG_10.jpg</text><rect x="266" y="164" width="108" height="78" rx="6" fill="#1b1b3e" opacity="0.85"/><rect x="266" y="246" width="108" height="14" rx="8" fill="#11112a"/><text x="272" y="256" fill="#8a93bd" font-family="Segoe UI, sans-serif" font-size="8" text-anchor="start" font-weight="400">IMG_11.jpg</text><rect x="382" y="164" width="108" height="78" rx="6" fill="url(#acc)" opacity="0.85"/><rect x="382" y="246" width="108" height="14" rx="8" fill="#11112a"/><text x="388" y="256" fill="#8a93bd" font-family="Segoe UI, sans-serif" font-size="8" text-anchor="start" font-weight="400">IMG_12.jpg</text><rect x="498" y="164" width="108" height="78" rx="6" fill="url(#accv)" opacity="0.85"/><rect x="498" y="246" width="108" height="14" rx="8" fill="#11112a"/><text x="504" y="256" fill="#8a93bd" font-family="Segoe UI, sans-serif" font-size="8" text-anchor="start" font-weight="400">IMG_13.jpg</text><rect x="614" y="164" width="108" height="78" rx="6" fill="#1b1b3e" opacity="0.85"/><rect x="614" y="246" width="108" height="14" rx="8" fill="#11112a"/><text x="620" y="256" fill="#8a93bd" font-family="Segoe UI, sans-serif" font-size="8" text-anchor="start" font-weight="400">IMG_14.jpg</text><rect x="150" y="276" width="108" height="78" rx="6" fill="#1b1b3e" opacity="0.85"/><rect x="150" y="358" width="108" height="14" rx="8" fill="#11112a"/><text x="156" y="368" fill="#8a93bd" font-family="Segoe UI, sans-serif" font-size="8" text-anchor="start" font-weight="400">IMG_20.jpg</text><rect x="266" y="276" width="108" height="78" rx="6" fill="url(#acc)" opacity="0.85"/><rect x="266" y="358" width="108" height="14" rx="8" fill="#11112a"/><text x="272" y="368" fill="#8a93bd" font-family="Segoe UI, sans-serif" font-size="8" text-anchor="start" font-weight="400">IMG_21.jpg</text><rect x="382" y="276" width="108" height="78" rx="6" fill="url(#accv)" opacity="0.85"/><rect x="382" y="358" width="108" height="14" rx="8" fill="#11112a"/><text x="388" y="368" fill="#8a93bd" font-family="Segoe UI, sans-serif" font-size="8" text-anchor="start" font-weight="400">IMG_22.jpg</text><rect x="498" y="276" width="108" height="78" rx="6" fill="#1b1b3e" opacity="0.85"/><rect x="498" y="358" width="108" height="14" rx="8" fill="#11112a"/><text x="504" y="368" fill="#8a93bd" font-family="Segoe UI, sans-serif" font-size="8" text-anchor="start" font-weight="400">IMG_23.jpg</text><rect x="614" y="276" width="108" height="78" rx="6" fill="url(#acc)" opacity="0.85"/><rect x="614" y="358" width="108" height="14" rx="8" fill="#11112a"/><text x="620" y="368" fill="#8a93bd" font-family="Segoe UI, sans-serif" font-size="8" text-anchor="start" font-weight="400">IMG_24.jpg</text></svg>