<svg viewBox="0 0 760 428" xmlns="http://www.w3.org/2000/svg" role="img" aria-label="FBX Builder interface mockup" preserveAspectRatio="xMidYMid meet"><defs><linearGradient id="bg" x1="0" y1="0" x2="1" y2="1"><stop offset="0" stop-color="#0b0b20"/><stop offset="1" stop-color="#130a2a"/></linearGradient><linearGradient id="acc" x1="0" y1="0" x2="1" y2="0"><stop offset="0" stop-color="#39FF6E"/><stop offset="0.5" stop-color="#33E0FF"/><stop offset="1" stop-color="#3A86FF"/></linearGradient><linearGradient id="accv" x1="0" y1="1" x2="0" y2="0"><stop offset="0" stop-color="#39FF6E"/><stop offset="1" stop-color="#33E0FF"/></linearGradient></defs><rect x="1" y="1" width="758" height="426" rx="14" fill="url(#bg)" stroke="#39FF6E" stroke-opacity="0.35"/><rect x="1" y="1" width="758" height="34" rx="14" fill="#08081a"/><rect x="1" y="20" width="758" height="15" fill="#08081a"/><circle cx="24" cy="18" r="5" fill="#ff5f57"/><circle cx="42" cy="18" r="5" fill="#febc2e"/><circle cx="60" cy="18" r="5" fill="#28c840"/><text x="380" y="23" text-anchor="middle" fill="#9AA3C7" font-family="Segoe UI, sans-serif" font-size="12">FBX Builder</text><rect x="596" y="46" width="148" height="366" rx="8" fill="#0d0d24" stroke="#39FF6E" stroke-opacity="0.4"/><line x1="40" y1="120" x2="560" y2="120" stroke="#33E0FF" stroke-opacity="0.12"/><line x1="40" y1="120" x2="40" y2="372" stroke="#33E0FF" stroke-opacity="0.12"/><line x1="40" y1="156" x2="560" y2="156" stroke="#33E0FF" stroke-opacity="0.12"/><line x1="114" y1="120" x2="114" y2="372" stroke="#33E0FF" stroke-opacity="0.12"/><line x1="40" y1="192" x2="560" y2="192" stroke="#33E0FF" stroke-opacity="0.12"/><line x1="188" y1="120" x2="188" y2="372" stroke="#33E0FF" stroke-opacity="0.12"/><line x1="40" y1="228" x2="560" y2="228" stroke="#33E0FF" stroke-opacity="0.12"/><line x1="262" y1="120" x2="262" y2="372" stroke="#33E0FF" stroke-opacity="0.12"/><line x1="40" y1="264" x2="560" y2="264" stroke="#33E0FF" stroke-opacity="0.12"/><line x1="336" y1="120" x2="336" y2="372" stroke="#33E0FF" stroke-opacity="0.12"/><line x1="40" y1="300" x2="560" y2="300" stroke="#33E0FF" stroke-opacity="0.12"/><line x1="410" y1="120" x2="410" y2="372" stroke="#33E0FF" stroke-opacity="0.12"/><line x1="40" y1="336" x2="560" y2="336" stroke="#33E0FF" stroke-opacity="0.12"/><line x1="484" y1="120" x2="484" y2="372" stroke="#33E0FF" stroke-opacity="0.12"/><line x1="40" y1="372" x2="560" y2="372" stroke="#33E0FF" stroke-opacity="0.12"/><line x1="558" y1="120" x2="558" y2="372" stroke="#33E0FF" stroke-opacity="0.12"/><polygon points="300,150 380,190 380,300 300,260" fill="url(#accv)" opacity="0.85"/><polygon points="300,150 220,190 220,300 300,260" fill="url(#acc)" opacity="0.6"/><polygon points="300,150 380,190 300,230 220,190" fill="#33E0FF" opacity="0.9"/><text x="610" y="60" fill="#9AA3C7" font-family="Segoe UI, sans-serif" font-size="9" text-anchor="start" font-weight="400">Width</text><rect x="610" y="68" width="118" height="6" rx="8" fill="#15153a"/><circle cx="640" cy="71" r="7" fill="url(#acc)"/><text x="610" y="120" fill="#9AA3C7" font-family="Segoe UI, sans-serif" font-size="9" text-anchor="start" font-weight="400">Height</text><rect x="610" y="128" width="118" height="6" rx="8" fill="#15153a"/><circle cx="652" cy="131" r="7" fill="url(#acc)"/><text x="610" y="180" fill="#9AA3C7" font-family="Segoe UI, sans-serif" font-size="9" text-anchor="start" font-weight="400">Depth</text><rect x="610" y="188" width="118" height="6" rx="8" fill="#15153a"/><circle cx="664" cy="191" r="7" fill="url(#acc)"/><text x="610" y="240" fill="#9AA3C7" font-family="Segoe UI, sans-serif" font-size="9" text-anchor="start" font-weight="400">Roof</text><rect x="610" y="248" width="118" height="6" rx="8" fill="#15153a"/><circle cx="676" cy="251" r="7" fill="url(#acc)"/><text x="610" y="300" fill="#9AA3C7" font-family="Segoe UI, sans-serif" font-size="9" text-anchor="start" font-weight="400">Scale</text><rect x="610" y="308" width="118" height="6" rx="8" fill="#15153a"/><circle cx="688" cy="311" r="7" fill="url(#acc)"/></svg>