<svg viewBox="0 0 760 428" xmlns="http://www.w3.org/2000/svg" role="img" aria-label="FREE COMS interface mockup" preserveAspectRatio="xMidYMid meet"><defs><linearGradient id="bg" x1="0" y1="0" x2="1" y2="1"><stop offset="0" stop-color="#0b0b20"/><stop offset="1" stop-color="#130a2a"/></linearGradient><linearGradient id="acc" x1="0" y1="0" x2="1" y2="0"><stop offset="0" stop-color="#39FF6E"/><stop offset="0.5" stop-color="#33E0FF"/><stop offset="1" stop-color="#3A86FF"/></linearGradient><linearGradient id="accv" x1="0" y1="1" x2="0" y2="0"><stop offset="0" stop-color="#39FF6E"/><stop offset="1" stop-color="#33E0FF"/></linearGradient></defs><rect x="1" y="1" width="758" height="426" rx="14" fill="url(#bg)" stroke="#39FF6E" stroke-opacity="0.35"/><rect x="1" y="1" width="758" height="34" rx="14" fill="#08081a"/><rect x="1" y="20" width="758" height="15" fill="#08081a"/><circle cx="24" cy="18" r="5" fill="#ff5f57"/><circle cx="42" cy="18" r="5" fill="#febc2e"/><circle cx="60" cy="18" r="5" fill="#28c840"/><text x="380" y="23" text-anchor="middle" fill="#9AA3C7" font-family="Segoe UI, sans-serif" font-size="12">FREE COMS</text><rect x="16" y="46" width="180" height="366" rx="8" fill="#0d0d24" stroke="#39FF6E" stroke-opacity="0.4"/><circle cx="40" cy="74" r="14" fill="url(#accv)"/><text x="62" y="70" fill="#fff" font-family="Segoe UI, sans-serif" font-size="11" text-anchor="start" font-weight="700">Contact 1</text><text x="62" y="86" fill="#8a93bd" font-family="Segoe UI, sans-serif" font-size="9" text-anchor="start" font-weight="400">encrypted message…</text><circle cx="40" cy="138" r="14" fill="url(#acc)"/><text x="62" y="134" fill="#fff" font-family="Segoe UI, sans-serif" font-size="11" text-anchor="start" font-weight="700">Contact 2</text><text x="62" y="150" fill="#8a93bd" font-family="Segoe UI, sans-serif" font-size="9" text-anchor="start" font-weight="400">encrypted message…</text><circle cx="40" cy="202" r="14" fill="url(#accv)"/><text x="62" y="198" fill="#fff" font-family="Segoe UI, sans-serif" font-size="11" text-anchor="start" font-weight="700">Contact 3</text><text x="62" y="214" fill="#8a93bd" font-family="Segoe UI, sans-serif" font-size="9" text-anchor="start" font-weight="400">encrypted message…</text><circle cx="40" cy="266" r="14" fill="url(#acc)"/><text x="62" y="262" fill="#fff" font-family="Segoe UI, sans-serif" font-size="11" text-anchor="start" font-weight="700">Contact 4</text><text x="62" y="278" fill="#8a93bd" font-family="Segoe UI, sans-serif" font-size="9" text-anchor="start" font-weight="400">encrypted message…</text><circle cx="40" cy="330" r="14" fill="url(#accv)"/><text x="62" y="326" fill="#fff" font-family="Segoe UI, sans-serif" font-size="11" text-anchor="start" font-weight="700">Contact 5</text><text x="62" y="342" fill="#8a93bd" font-family="Segoe UI, sans-serif" font-size="9" text-anchor="start" font-weight="400">encrypted message…</text><rect x="220" y="60" width="240" height="56" rx="14" fill="#1b1b40" opacity="0.92"/><text x="236" y="84" fill="#e8ecff" font-family="Segoe UI, sans-serif" font-size="10" text-anchor="start" font-weight="400">Lorem ipsum dolor sit</text><text x="236" y="102" fill="#cdd4f5" font-family="Segoe UI, sans-serif" font-size="10" text-anchor="start" font-weight="400">amet consectetur.</text><rect x="360" y="140" width="300" height="56" rx="14" fill="url(#acc)" opacity="0.92"/><text x="376" y="164" fill="#e8ecff" font-family="Segoe UI, sans-serif" font-size="10" text-anchor="start" font-weight="400">Lorem ipsum dolor sit</text><text x="376" y="182" fill="#cdd4f5" font-family="Segoe UI, sans-serif" font-size="10" text-anchor="start" font-weight="400">amet consectetur.</text><rect x="220" y="220" width="200" height="56" rx="14" fill="#1b1b40" opacity="0.92"/><text x="236" y="244" fill="#e8ecff" font-family="Segoe UI, sans-serif" font-size="10" text-anchor="start" font-weight="400">Lorem ipsum dolor sit</text><text x="236" y="262" fill="#cdd4f5" font-family="Segoe UI, sans-serif" font-size="10" text-anchor="start" font-weight="400">amet consectetur.</text><rect x="330" y="300" width="260" height="56" rx="14" fill="url(#acc)" opacity="0.92"/><text x="346" y="324" fill="#e8ecff" font-family="Segoe UI, sans-serif" font-size="10" text-anchor="start" font-weight="400">Lorem ipsum dolor sit</text><text x="346" y="342" fill="#cdd4f5" font-family="Segoe UI, sans-serif" font-size="10" text-anchor="start" font-weight="400">amet consectetur.</text><rect x="216" y="380" width="520" height="30" rx="8" fill="#15153a" stroke="#33E0FF" stroke-opacity="0.4"/><text x="232" y="399" fill="#8a93bd" font-family="Segoe UI, sans-serif" font-size="11" text-anchor="start" font-weight="400">Type a message…</text></svg>