<svg viewBox="0 0 760 428" xmlns="http://www.w3.org/2000/svg" role="img" aria-label="GHOST interface mockup" preserveAspectRatio="xMidYMid meet"><defs><linearGradient id="bg" x1="0" y1="0" x2="1" y2="1"><stop offset="0" stop-color="#0b0b20"/><stop offset="1" stop-color="#130a2a"/></linearGradient><linearGradient id="acc" x1="0" y1="0" x2="1" y2="0"><stop offset="0" stop-color="#C77DFF"/><stop offset="0.5" stop-color="#FF5555"/><stop offset="1" stop-color="#33E0FF"/></linearGradient><linearGradient id="accv" x1="0" y1="1" x2="0" y2="0"><stop offset="0" stop-color="#C77DFF"/><stop offset="1" stop-color="#FF5555"/></linearGradient></defs><rect x="1" y="1" width="758" height="426" rx="14" fill="url(#bg)" stroke="#C77DFF" stroke-opacity="0.35"/><rect x="1" y="1" width="758" height="34" rx="14" fill="#08081a"/><rect x="1" y="20" width="758" height="15" fill="#08081a"/><circle cx="24" cy="18" r="5" fill="#ff5f57"/><circle cx="42" cy="18" r="5" fill="#febc2e"/><circle cx="60" cy="18" r="5" fill="#28c840"/><text x="380" y="23" text-anchor="middle" fill="#9AA3C7" font-family="Segoe UI, sans-serif" font-size="12">GHOST</text><rect x="580" y="46" width="164" height="366" rx="8" fill="#0d0d24" stroke="#C77DFF" stroke-opacity="0.4"/><rect x="16" y="46" width="552" height="250" rx="8" fill="#08081c" stroke="#33E0FF" stroke-opacity="0.4"/><polygon points="270,150 270,208 320,179" fill="#FF5555" opacity="0.95"/><circle cx="292" cy="179" r="44" fill="none" stroke="#FF5555" stroke-opacity="0.6" stroke-width="3"/><rect x="28" y="276" width="528" height="8" rx="8" fill="#15153a"/><rect x="28" y="276" width="300" height="8" rx="4" fill="url(#acc)"/><text x="34" y="70" fill="#fff" font-family="Segoe UI, sans-serif" font-size="12" text-anchor="start" font-weight="700">Watch</text><rect x="16" y="300" width="128" height="100" rx="8" fill="#15153a"/><rect x="24" y="308" width="112" height="58" rx="4" fill="url(#accv)" opacity="0.8"/><text x="24" y="384" fill="#9AA3C7" font-family="Segoe UI, sans-serif" font-size="9" text-anchor="start" font-weight="400">Channel 1</text><rect x="156" y="300" width="128" height="100" rx="8" fill="#15153a"/><rect x="164" y="308" width="112" height="58" rx="4" fill="url(#acc)" opacity="0.8"/><text x="164" y="384" fill="#9AA3C7" font-family="Segoe UI, sans-serif" font-size="9" text-anchor="start" font-weight="400">Channel 2</text><rect x="296" y="300" width="128" height="100" rx="8" fill="#15153a"/><rect x="304" y="308" width="112" height="58" rx="4" fill="url(#accv)" opacity="0.8"/><text x="304" y="384" fill="#9AA3C7" font-family="Segoe UI, sans-serif" font-size="9" text-anchor="start" font-weight="400">Channel 3</text><rect x="436" y="300" width="128" height="100" rx="8" fill="#15153a"/><rect x="444" y="308" width="112" height="58" rx="4" fill="url(#acc)" opacity="0.8"/><text x="444" y="384" fill="#9AA3C7" font-family="Segoe UI, sans-serif" font-size="9" text-anchor="start" font-weight="400">Channel 4</text><rect x="592" y="56" width="140" height="60" rx="8" fill="#15153a"/><rect x="600" y="62" width="48" height="40" rx="4" fill="url(#acc)" opacity="0.8"/><text x="656" y="80" fill="#9AA3C7" font-family="Segoe UI, sans-serif" font-size="9" text-anchor="start" font-weight="400">Up next</text><rect x="592" y="126" width="140" height="60" rx="8" fill="#15153a"/><rect x="600" y="132" width="48" height="40" rx="4" fill="url(#accv)" opacity="0.8"/><text x="656" y="150" fill="#9AA3C7" font-family="Segoe UI, sans-serif" font-size="9" text-anchor="start" font-weight="400">Up next</text><rect x="592" y="196" width="140" height="60" rx="8" fill="#15153a"/><rect x="600" y="202" width="48" height="40" rx="4" fill="url(#acc)" opacity="0.8"/><text x="656" y="220" fill="#9AA3C7" font-family="Segoe UI, sans-serif" font-size="9" text-anchor="start" font-weight="400">Up next</text><rect x="592" y="266" width="140" height="60" rx="8" fill="#15153a"/><rect x="600" y="272" width="48" height="40" rx="4" fill="url(#accv)" opacity="0.8"/><text x="656" y="290" fill="#9AA3C7" font-family="Segoe UI, sans-serif" font-size="9" text-anchor="start" font-weight="400">Up next</text><rect x="592" y="336" width="140" height="60" rx="8" fill="#15153a"/><rect x="600" y="342" width="48" height="40" rx="4" fill="url(#acc)" opacity="0.8"/><text x="656" y="360" fill="#9AA3C7" font-family="Segoe UI, sans-serif" font-size="9" text-anchor="start" font-weight="400">Up next</text></svg>