<svg viewBox="0 0 760 428" xmlns="http://www.w3.org/2000/svg" role="img" aria-label="Hotspot interface mockup" preserveAspectRatio="xMidYMid meet"><defs><linearGradient id="bg" x1="0" y1="0" x2="1" y2="1"><stop offset="0" stop-color="#0b0b20"/><stop offset="1" stop-color="#130a2a"/></linearGradient><linearGradient id="acc" x1="0" y1="0" x2="1" y2="0"><stop offset="0" stop-color="#FF5DA2"/><stop offset="0.5" stop-color="#FFB13B"/><stop offset="1" stop-color="#9D5BFF"/></linearGradient><linearGradient id="accv" x1="0" y1="1" x2="0" y2="0"><stop offset="0" stop-color="#FF5DA2"/><stop offset="1" stop-color="#FFB13B"/></linearGradient></defs><rect x="1" y="1" width="758" height="426" rx="14" fill="url(#bg)" stroke="#FF5DA2" stroke-opacity="0.35"/><rect x="1" y="1" width="758" height="34" rx="14" fill="#08081a"/><rect x="1" y="20" width="758" height="15" fill="#08081a"/><circle cx="24" cy="18" r="5" fill="#ff5f57"/><circle cx="42" cy="18" r="5" fill="#febc2e"/><circle cx="60" cy="18" r="5" fill="#28c840"/><text x="380" y="23" text-anchor="middle" fill="#9AA3C7" font-family="Segoe UI, sans-serif" font-size="12">Hotspot</text><rect x="16" y="46" width="150" height="366" rx="8" fill="#0d0d24" stroke="#FF5DA2" stroke-opacity="0.4"/><rect x="596" y="46" width="148" height="366" rx="8" fill="#0d0d24" stroke="#9D5BFF" stroke-opacity="0.4"/><rect x="186" y="54" width="392" height="168" rx="8" fill="#11112a" stroke="#FFB13B" stroke-opacity="0.4"/><circle cx="212" cy="82" r="14" fill="url(#accv)"/><text x="236" y="78" fill="#fff" font-family="Segoe UI, sans-serif" font-size="11" text-anchor="start" font-weight="700">User Name</text><text x="236" y="94" fill="#8a93bd" font-family="Segoe UI, sans-serif" font-size="9" text-anchor="start" font-weight="400">shared a post</text><rect x="200" y="106" width="364" height="70" rx="6" fill="url(#acc)" opacity="0.6"/><text x="212" y="204" fill="#cdd4f5" font-family="Segoe UI, sans-serif" font-size="14" text-anchor="start" font-weight="400">👍</text><text x="256" y="204" fill="#cdd4f5" font-family="Segoe UI, sans-serif" font-size="14" text-anchor="start" font-weight="400">👎</text><text x="300" y="204" fill="#cdd4f5" font-family="Segoe UI, sans-serif" font-size="14" text-anchor="start" font-weight="400">😱</text><rect x="186" y="232" width="392" height="168" rx="8" fill="#11112a" stroke="#FFB13B" stroke-opacity="0.4"/><circle cx="212" cy="260" r="14" fill="url(#acc)"/><text x="236" y="256" fill="#fff" font-family="Segoe UI, sans-serif" font-size="11" text-anchor="start" font-weight="700">User Name</text><text x="236" y="272" fill="#8a93bd" font-family="Segoe UI, sans-serif" font-size="9" text-anchor="start" font-weight="400">shared a post</text><rect x="200" y="284" width="364" height="70" rx="6" fill="url(#accv)" opacity="0.6"/><text x="212" y="382" fill="#cdd4f5" font-family="Segoe UI, sans-serif" font-size="14" text-anchor="start" font-weight="400">👍</text><text x="256" y="382" fill="#cdd4f5" font-family="Segoe UI, sans-serif" font-size="14" text-anchor="start" font-weight="400">👎</text><text x="300" y="382" fill="#cdd4f5" font-family="Segoe UI, sans-serif" font-size="14" text-anchor="start" font-weight="400">😱</text></svg>