<svg viewBox="0 0 760 428" xmlns="http://www.w3.org/2000/svg" role="img" aria-label="NetWatch interface mockup" preserveAspectRatio="xMidYMid meet"><defs><linearGradient id="bg" x1="0" y1="0" x2="1" y2="1"><stop offset="0" stop-color="#0b0b20"/><stop offset="1" stop-color="#130a2a"/></linearGradient><linearGradient id="acc" x1="0" y1="0" x2="1" y2="0"><stop offset="0" stop-color="#FFB13B"/><stop offset="0.5" stop-color="#3A86FF"/><stop offset="1" stop-color="#33E0FF"/></linearGradient><linearGradient id="accv" x1="0" y1="1" x2="0" y2="0"><stop offset="0" stop-color="#FFB13B"/><stop offset="1" stop-color="#3A86FF"/></linearGradient></defs><rect x="1" y="1" width="758" height="426" rx="14" fill="url(#bg)" stroke="#FFB13B" stroke-opacity="0.35"/><rect x="1" y="1" width="758" height="34" rx="14" fill="#08081a"/><rect x="1" y="20" width="758" height="15" fill="#08081a"/><circle cx="24" cy="18" r="5" fill="#ff5f57"/><circle cx="42" cy="18" r="5" fill="#febc2e"/><circle cx="60" cy="18" r="5" fill="#28c840"/><text x="380" y="23" text-anchor="middle" fill="#9AA3C7" font-family="Segoe UI, sans-serif" font-size="12">NetWatch</text><line x1="360" y1="230" x2="510" y2="230" stroke="#3A86FF" stroke-opacity="0.25"/><line x1="360" y1="230" x2="454" y2="324" stroke="#3A86FF" stroke-opacity="0.25"/><line x1="360" y1="230" x2="327" y2="347" stroke="#3A86FF" stroke-opacity="0.25"/><line x1="360" y1="230" x2="225" y2="282" stroke="#3A86FF" stroke-opacity="0.25"/><line x1="360" y1="230" x2="225" y2="178" stroke="#3A86FF" stroke-opacity="0.25"/><line x1="360" y1="230" x2="327" y2="113" stroke="#3A86FF" stroke-opacity="0.25"/><line x1="360" y1="230" x2="454" y2="136" stroke="#3A86FF" stroke-opacity="0.25"/><circle cx="360" cy="230" r="24" fill="url(#acc)" opacity="0.9"/><text x="360" y="266" fill="#9AA3C7" font-family="Segoe UI, sans-serif" font-size="9" text-anchor="middle" font-weight="400">ROUTER</text><circle cx="510" cy="230" r="16" fill="url(#accv)" opacity="0.9"/><text x="510.0" y="258.0" fill="#9AA3C7" font-family="Segoe UI, sans-serif" font-size="9" text-anchor="middle" font-weight="400">PC</text><circle cx="454" cy="324" r="16" fill="url(#accv)" opacity="0.9"/><text x="453.52347027881" y="351.8197778961636" fill="#9AA3C7" font-family="Segoe UI, sans-serif" font-size="9" text-anchor="middle" font-weight="400">PHONE</text><circle cx="327" cy="347" r="16" fill="url(#accv)" opacity="0.9"/><text x="326.62185990655286" y="374.9913494618188" fill="#9AA3C7" font-family="Segoe UI, sans-serif" font-size="9" text-anchor="middle" font-weight="400">TV</text><circle cx="225" cy="282" r="16" fill="url(#accv)" opacity="0.9"/><text x="224.85466981463713" y="310.066048694107" fill="#9AA3C7" font-family="Segoe UI, sans-serif" font-size="9" text-anchor="middle" font-weight="400">PI</text><circle cx="225" cy="178" r="16" fill="url(#accv)" opacity="0.9"/><text x="224.85466981463713" y="205.93395130589303" fill="#9AA3C7" font-family="Segoe UI, sans-serif" font-size="9" text-anchor="middle" font-weight="400">LAPTOP</text><circle cx="327" cy="113" r="16" fill="url(#accv)" opacity="0.9"/><text x="326.6218599065528" y="141.00865053818117" fill="#9AA3C7" font-family="Segoe UI, sans-serif" font-size="9" text-anchor="middle" font-weight="400">IOT</text><circle cx="454" cy="136" r="16" fill="url(#accv)" opacity="0.9"/><text x="453.52347027881" y="164.1802221038364" fill="#9AA3C7" font-family="Segoe UI, sans-serif" font-size="9" text-anchor="middle" font-weight="400">NAS</text><rect x="580" y="56" width="164" height="120" rx="8" fill="#11112a" stroke="#FFB13B" stroke-opacity="0.4"/><text x="596" y="78" fill="#fff" font-family="Segoe UI, sans-serif" font-size="11" text-anchor="start" font-weight="700">192.168.0.4</text><text x="596" y="98" fill="#8a93bd" font-family="Segoe UI, sans-serif" font-size="10" text-anchor="start" font-weight="400">DNS · 1.2 GB</text></svg>