<svg viewBox="0 0 760 428" xmlns="http://www.w3.org/2000/svg" role="img" aria-label="PC PicDraw interface mockup" preserveAspectRatio="xMidYMid meet"><defs><linearGradient id="bg" x1="0" y1="0" x2="1" y2="1"><stop offset="0" stop-color="#0b0b20"/><stop offset="1" stop-color="#130a2a"/></linearGradient><linearGradient id="acc" x1="0" y1="0" x2="1" y2="0"><stop offset="0" stop-color="#3A86FF"/><stop offset="0.5" stop-color="#33E0FF"/><stop offset="1" stop-color="#7FFFD4"/></linearGradient><linearGradient id="accv" x1="0" y1="1" x2="0" y2="0"><stop offset="0" stop-color="#3A86FF"/><stop offset="1" stop-color="#33E0FF"/></linearGradient></defs><rect x="1" y="1" width="758" height="426" rx="14" fill="url(#bg)" stroke="#3A86FF" stroke-opacity="0.35"/><rect x="1" y="1" width="758" height="34" rx="14" fill="#08081a"/><rect x="1" y="20" width="758" height="15" fill="#08081a"/><circle cx="24" cy="18" r="5" fill="#ff5f57"/><circle cx="42" cy="18" r="5" fill="#febc2e"/><circle cx="60" cy="18" r="5" fill="#28c840"/><text x="380" y="23" text-anchor="middle" fill="#9AA3C7" font-family="Segoe UI, sans-serif" font-size="12">PC PicDraw</text><rect x="16" y="46" width="580" height="366" rx="8" fill="#08081c" stroke="#7FFFD4" stroke-opacity="0.4"/><rect x="40" y="66" width="532" height="326" rx="6" fill="url(#accv)" opacity="0.30"/><line x1="217" y1="66" x2="217" y2="392" stroke="#fff" stroke-opacity="0.6"/><line x1="40" y1="175" x2="572" y2="175" stroke="#fff" stroke-opacity="0.6"/><line x1="394" y1="66" x2="394" y2="392" stroke="#fff" stroke-opacity="0.6"/><line x1="40" y1="284" x2="572" y2="284" stroke="#fff" stroke-opacity="0.6"/><path d="M572 66 A266 326 0 0 1 306 392" fill="none" stroke="#33E0FF" stroke-opacity="0.7"/><rect x="610" y="46" width="134" height="366" rx="8" fill="#0d0d24" stroke="#3A86FF" stroke-opacity="0.4"/><text x="624" y="60" fill="#9AA3C7" font-family="Segoe UI, sans-serif" font-size="9" text-anchor="start" font-weight="400">Thirds</text><rect x="624" y="68" width="104" height="6" rx="8" fill="#15153a"/><circle cx="650" cy="71" r="7" fill="url(#acc)"/><text x="624" y="118" fill="#9AA3C7" font-family="Segoe UI, sans-serif" font-size="9" text-anchor="start" font-weight="400">Custom</text><rect x="624" y="126" width="104" height="6" rx="8" fill="#15153a"/><circle cx="659" cy="129" r="7" fill="url(#acc)"/><text x="624" y="176" fill="#9AA3C7" font-family="Segoe UI, sans-serif" font-size="9" text-anchor="start" font-weight="400">Pixel</text><rect x="624" y="184" width="104" height="6" rx="8" fill="#15153a"/><circle cx="668" cy="187" r="7" fill="url(#acc)"/><text x="624" y="234" fill="#9AA3C7" font-family="Segoe UI, sans-serif" font-size="9" text-anchor="start" font-weight="400">Golden</text><rect x="624" y="242" width="104" height="6" rx="8" fill="#15153a"/><circle cx="677" cy="245" r="7" fill="url(#acc)"/><text x="624" y="292" fill="#9AA3C7" font-family="Segoe UI, sans-serif" font-size="9" text-anchor="start" font-weight="400">B&amp;W</text><rect x="624" y="300" width="104" height="6" rx="8" fill="#15153a"/><circle cx="686" cy="303" r="7" fill="url(#acc)"/><text x="624" y="350" fill="#9AA3C7" font-family="Segoe UI, sans-serif" font-size="9" text-anchor="start" font-weight="400">Grain</text><rect x="624" y="358" width="104" height="6" rx="8" fill="#15153a"/><circle cx="695" cy="361" r="7" fill="url(#acc)"/></svg>