<svg viewBox="0 0 760 428" xmlns="http://www.w3.org/2000/svg" role="img" aria-label="PCpro Professional Suite interface mockup" preserveAspectRatio="xMidYMid meet"><defs><linearGradient id="bg" x1="0" y1="0" x2="1" y2="1"><stop offset="0" stop-color="#0b0b20"/><stop offset="1" stop-color="#130a2a"/></linearGradient><linearGradient id="acc" x1="0" y1="0" x2="1" y2="0"><stop offset="0" stop-color="#33E0FF"/><stop offset="0.5" stop-color="#39FF6E"/><stop offset="1" stop-color="#3A86FF"/></linearGradient><linearGradient id="accv" x1="0" y1="1" x2="0" y2="0"><stop offset="0" stop-color="#33E0FF"/><stop offset="1" stop-color="#39FF6E"/></linearGradient></defs><rect x="1" y="1" width="758" height="426" rx="14" fill="url(#bg)" stroke="#33E0FF" stroke-opacity="0.35"/><rect x="1" y="1" width="758" height="34" rx="14" fill="#08081a"/><rect x="1" y="20" width="758" height="15" fill="#08081a"/><circle cx="24" cy="18" r="5" fill="#ff5f57"/><circle cx="42" cy="18" r="5" fill="#febc2e"/><circle cx="60" cy="18" r="5" fill="#28c840"/><text x="380" y="23" text-anchor="middle" fill="#9AA3C7" font-family="Segoe UI, sans-serif" font-size="12">PCpro Professional Suite</text><rect x="16" y="46" width="140" height="366" rx="8" fill="#0d0d24" stroke="#33E0FF" stroke-opacity="0.4"/><rect x="24" y="58" width="124" height="28" rx="8" fill="url(#acc)"/><text x="34" y="76" fill="#fff" font-family="Segoe UI, sans-serif" font-size="10" text-anchor="start" font-weight="700">CPU</text><rect x="24" y="94" width="124" height="28" rx="8" fill="#15153a"/><text x="34" y="112" fill="#9AA3C7" font-family="Segoe UI, sans-serif" font-size="10" text-anchor="start" font-weight="400">Memory</text><rect x="24" y="130" width="124" height="28" rx="8" fill="#15153a"/><text x="34" y="148" fill="#9AA3C7" font-family="Segoe UI, sans-serif" font-size="10" text-anchor="start" font-weight="400">Disk</text><rect x="24" y="166" width="124" height="28" rx="8" fill="#15153a"/><text x="34" y="184" fill="#9AA3C7" font-family="Segoe UI, sans-serif" font-size="10" text-anchor="start" font-weight="400">Audio</text><rect x="24" y="202" width="124" height="28" rx="8" fill="#15153a"/><text x="34" y="220" fill="#9AA3C7" font-family="Segoe UI, sans-serif" font-size="10" text-anchor="start" font-weight="400">Display</text><rect x="170" y="52" width="132" height="70" rx="8" fill="#13132f" stroke="#39FF6E" stroke-opacity="0.4"/><text x="184" y="84" fill="#fff" font-family="Segoe UI, sans-serif" font-size="20" text-anchor="start" font-weight="800">32%</text><text x="184" y="104" fill="#8a93bd" font-family="Segoe UI, sans-serif" font-size="10" text-anchor="start" font-weight="400">CPU</text><rect x="315" y="52" width="132" height="70" rx="8" fill="#13132f" stroke="#39FF6E" stroke-opacity="0.4"/><text x="329" y="84" fill="#fff" font-family="Segoe UI, sans-serif" font-size="20" text-anchor="start" font-weight="800">58%</text><text x="329" y="104" fill="#8a93bd" font-family="Segoe UI, sans-serif" font-size="10" text-anchor="start" font-weight="400">RAM</text><rect x="460" y="52" width="132" height="70" rx="8" fill="#13132f" stroke="#39FF6E" stroke-opacity="0.4"/><text x="474" y="84" fill="#fff" font-family="Segoe UI, sans-serif" font-size="20" text-anchor="start" font-weight="800">41%</text><text x="474" y="104" fill="#8a93bd" font-family="Segoe UI, sans-serif" font-size="10" text-anchor="start" font-weight="400">GPU</text><rect x="605" y="52" width="132" height="70" rx="8" fill="#13132f" stroke="#39FF6E" stroke-opacity="0.4"/><text x="619" y="84" fill="#fff" font-family="Segoe UI, sans-serif" font-size="20" text-anchor="start" font-weight="800">77%</text><text x="619" y="104" fill="#8a93bd" font-family="Segoe UI, sans-serif" font-size="10" text-anchor="start" font-weight="400">Disk</text><rect x="170" y="134" width="400" height="270" rx="8" fill="#11112a" stroke="#3A86FF" stroke-opacity="0.4"/><rect x="192" y="354" width="28" height="30" rx="4" fill="url(#accv)" opacity="0.9"/><rect x="238" y="257" width="28" height="127" rx="4" fill="url(#accv)" opacity="0.9"/><rect x="284" y="206" width="28" height="178" rx="4" fill="url(#accv)" opacity="0.9"/><rect x="330" y="225" width="28" height="159" rx="4" fill="url(#accv)" opacity="0.9"/><rect x="376" y="304" width="28" height="80" rx="4" fill="url(#accv)" opacity="0.9"/><rect x="422" y="301" width="28" height="83" rx="4" fill="url(#accv)" opacity="0.9"/><rect x="468" y="223" width="28" height="161" rx="4" fill="url(#accv)" opacity="0.9"/><rect x="514" y="207" width="28" height="177" rx="4" fill="url(#accv)" opacity="0.9"/><circle cx="660" cy="270" r="64" fill="none" stroke="#15153a" stroke-width="22"/><circle cx="660" cy="270" r="64" fill="none" stroke="url(#acc)" stroke-width="22" stroke-dasharray="240 402" transform="rotate(-90 660 270)"/></svg>