<svg viewBox="0 0 760 428" xmlns="http://www.w3.org/2000/svg" role="img" aria-label="Pong interface mockup" preserveAspectRatio="xMidYMid meet"><defs><linearGradient id="bg" x1="0" y1="0" x2="1" y2="1"><stop offset="0" stop-color="#0b0b20"/><stop offset="1" stop-color="#130a2a"/></linearGradient><linearGradient id="acc" x1="0" y1="0" x2="1" y2="0"><stop offset="0" stop-color="#39FF6E"/><stop offset="0.5" stop-color="#33E0FF"/><stop offset="1" stop-color="#39FF6E"/></linearGradient><linearGradient id="accv" x1="0" y1="1" x2="0" y2="0"><stop offset="0" stop-color="#39FF6E"/><stop offset="1" stop-color="#33E0FF"/></linearGradient></defs><rect x="1" y="1" width="758" height="426" rx="14" fill="url(#bg)" stroke="#39FF6E" stroke-opacity="0.35"/><rect x="1" y="1" width="758" height="34" rx="14" fill="#08081a"/><rect x="1" y="20" width="758" height="15" fill="#08081a"/><circle cx="24" cy="18" r="5" fill="#ff5f57"/><circle cx="42" cy="18" r="5" fill="#febc2e"/><circle cx="60" cy="18" r="5" fill="#28c840"/><text x="380" y="23" text-anchor="middle" fill="#9AA3C7" font-family="Segoe UI, sans-serif" font-size="12">Pong</text><rect x="2" y="35" width="756" height="391" fill="#020208"/><rect x="378" y="46" width="4" height="16" fill="#33E0FF" opacity="0.5"/><rect x="378" y="74" width="4" height="16" fill="#33E0FF" opacity="0.5"/><rect x="378" y="102" width="4" height="16" fill="#33E0FF" opacity="0.5"/><rect x="378" y="130" width="4" height="16" fill="#33E0FF" opacity="0.5"/><rect x="378" y="158" width="4" height="16" fill="#33E0FF" opacity="0.5"/><rect x="378" y="186" width="4" height="16" fill="#33E0FF" opacity="0.5"/><rect x="378" y="214" width="4" height="16" fill="#33E0FF" opacity="0.5"/><rect x="378" y="242" width="4" height="16" fill="#33E0FF" opacity="0.5"/><rect x="378" y="270" width="4" height="16" fill="#33E0FF" opacity="0.5"/><rect x="378" y="298" width="4" height="16" fill="#33E0FF" opacity="0.5"/><rect x="378" y="326" width="4" height="16" fill="#33E0FF" opacity="0.5"/><rect x="378" y="354" width="4" height="16" fill="#33E0FF" opacity="0.5"/><rect x="378" y="382" width="4" height="16" fill="#33E0FF" opacity="0.5"/><rect x="378" y="410" width="4" height="16" fill="#33E0FF" opacity="0.5"/><rect x="40" y="160" width="12" height="90" rx="3" fill="url(#accv)"/><rect x="708" y="220" width="12" height="90" rx="3" fill="url(#accv)"/><rect x="430" y="210" width="16" height="16" rx="3" fill="#fff"/><text x="300" y="90" fill="#fff" font-family="Segoe UI, sans-serif" font-size="40" text-anchor="middle" font-weight="800">3</text><text x="460" y="90" fill="#fff" font-family="Segoe UI, sans-serif" font-size="40" text-anchor="middle" font-weight="800">2</text></svg>