<svg viewBox="0 0 760 428" xmlns="http://www.w3.org/2000/svg" role="img" aria-label="Spot! interface mockup" preserveAspectRatio="xMidYMid meet"><defs><linearGradient id="bg" x1="0" y1="0" x2="1" y2="1"><stop offset="0" stop-color="#0b0b20"/><stop offset="1" stop-color="#130a2a"/></linearGradient><linearGradient id="acc" x1="0" y1="0" x2="1" y2="0"><stop offset="0" stop-color="#39FF6E"/><stop offset="0.5" stop-color="#7FB2FF"/><stop offset="1" stop-color="#FFB13B"/></linearGradient><linearGradient id="accv" x1="0" y1="1" x2="0" y2="0"><stop offset="0" stop-color="#39FF6E"/><stop offset="1" stop-color="#7FB2FF"/></linearGradient></defs><rect x="1" y="1" width="758" height="426" rx="14" fill="url(#bg)" stroke="#39FF6E" stroke-opacity="0.35"/><rect x="1" y="1" width="758" height="34" rx="14" fill="#08081a"/><rect x="1" y="20" width="758" height="15" fill="#08081a"/><circle cx="24" cy="18" r="5" fill="#ff5f57"/><circle cx="42" cy="18" r="5" fill="#febc2e"/><circle cx="60" cy="18" r="5" fill="#28c840"/><text x="380" y="23" text-anchor="middle" fill="#9AA3C7" font-family="Segoe UI, sans-serif" font-size="12">Spot!</text><defs><linearGradient id="sky" x1="0" y1="0" x2="0" y2="1"><stop offset="0" stop-color="#39FF6E" stop-opacity="0.5"/><stop offset="1" stop-color="#7FB2FF" stop-opacity="0.15"/></linearGradient></defs><rect x="2" y="35" width="756" height="250" fill="url(#sky)"/><circle cx="640" cy="100" r="34" fill="#7FB2FF" opacity="0.8"/><rect x="2" y="270" width="756" height="156" fill="#FFB13B" opacity="0.18"/><path d="M2 285 Q200 250 400 285 T758 280 L758 426 L2 426 Z" fill="#39FF6E" opacity="0.22"/><rect x="120" y="225" width="10" height="40" fill="#3a2a1a"/><circle cx="125" cy="215" r="26" fill="#7FB2FF" opacity="0.55"/><rect x="250" y="225" width="10" height="40" fill="#3a2a1a"/><circle cx="255" cy="215" r="26" fill="#7FB2FF" opacity="0.55"/><rect x="560" y="225" width="10" height="40" fill="#3a2a1a"/><circle cx="565" cy="215" r="26" fill="#7FB2FF" opacity="0.55"/><rect x="680" y="225" width="10" height="40" fill="#3a2a1a"/><circle cx="685" cy="215" r="26" fill="#7FB2FF" opacity="0.55"/><circle cx="350" cy="300" r="14" fill="#f3c79a"/><rect x="340" y="312" width="20" height="34" rx="6" fill="url(#acc)"/><ellipse cx="410" cy="345" rx="26" ry="13" fill="#2a2a2a"/><circle cx="432" cy="338" r="9" fill="#2a2a2a"/><rect x="16" y="384" width="728" height="28" rx="8" fill="#0a0a1e"/><text x="28" y="402" fill="#9AA3C7" font-family="Segoe UI, sans-serif" font-size="9" text-anchor="start" font-weight="400">Food</text><rect x="72" y="394" width="100" height="8" rx="8" fill="#15153a"/><rect x="72" y="394" width="70" height="8" rx="4" fill="url(#acc)"/><text x="203" y="402" fill="#9AA3C7" font-family="Segoe UI, sans-serif" font-size="9" text-anchor="start" font-weight="400">Water</text><rect x="247" y="394" width="100" height="8" rx="8" fill="#15153a"/><rect x="247" y="394" width="50" height="8" rx="4" fill="url(#acc)"/><text x="378" y="402" fill="#9AA3C7" font-family="Segoe UI, sans-serif" font-size="9" text-anchor="start" font-weight="400">Energy</text><rect x="422" y="394" width="100" height="8" rx="8" fill="#15153a"/><rect x="422" y="394" width="80" height="8" rx="4" fill="url(#acc)"/><text x="553" y="402" fill="#9AA3C7" font-family="Segoe UI, sans-serif" font-size="9" text-anchor="start" font-weight="400">Happy</text><rect x="597" y="394" width="100" height="8" rx="8" fill="#15153a"/><rect x="597" y="394" width="90" height="8" rx="4" fill="url(#acc)"/></svg>