<svg viewBox="0 0 760 428" xmlns="http://www.w3.org/2000/svg" role="img" aria-label="TalkTime interface mockup" preserveAspectRatio="xMidYMid meet"><defs><linearGradient id="bg" x1="0" y1="0" x2="1" y2="1"><stop offset="0" stop-color="#0b0b20"/><stop offset="1" stop-color="#130a2a"/></linearGradient><linearGradient id="acc" x1="0" y1="0" x2="1" y2="0"><stop offset="0" stop-color="#FF5DA2"/><stop offset="0.5" stop-color="#FFB13B"/><stop offset="1" stop-color="#33E0FF"/></linearGradient><linearGradient id="accv" x1="0" y1="1" x2="0" y2="0"><stop offset="0" stop-color="#FF5DA2"/><stop offset="1" stop-color="#FFB13B"/></linearGradient></defs><rect x="1" y="1" width="758" height="426" rx="14" fill="url(#bg)" stroke="#FF5DA2" stroke-opacity="0.35"/><rect x="1" y="1" width="758" height="34" rx="14" fill="#08081a"/><rect x="1" y="20" width="758" height="15" fill="#08081a"/><circle cx="24" cy="18" r="5" fill="#ff5f57"/><circle cx="42" cy="18" r="5" fill="#febc2e"/><circle cx="60" cy="18" r="5" fill="#28c840"/><text x="380" y="23" text-anchor="middle" fill="#9AA3C7" font-family="Segoe UI, sans-serif" font-size="12">TalkTime</text><rect x="2" y="35" width="756" height="391" fill="#070716"/><rect x="300" y="50" width="160" height="330" rx="26" fill="#05050f" stroke="#FF5DA2" stroke-opacity="0.5" stroke-width="2"/><rect x="308" y="68" width="144" height="294" rx="10" fill="#0b0b20"/><circle cx="380.0" cy="61" r="3" fill="#222"/><rect x="326" y="92" width="52" height="60" rx="10" fill="url(#accv)" opacity="0.85"/><text x="352" y="132" fill="#fff" font-family="Segoe UI, sans-serif" font-size="22" text-anchor="middle" font-weight="400">🐶</text><rect x="388" y="92" width="52" height="60" rx="10" fill="url(#acc)" opacity="0.85"/><text x="414" y="132" fill="#fff" font-family="Segoe UI, sans-serif" font-size="22" text-anchor="middle" font-weight="400">🍎</text><rect x="326" y="166" width="52" height="60" rx="10" fill="url(#accv)" opacity="0.85"/><text x="352" y="206" fill="#fff" font-family="Segoe UI, sans-serif" font-size="22" text-anchor="middle" font-weight="400">⭐</text><rect x="388" y="166" width="52" height="60" rx="10" fill="url(#acc)" opacity="0.85"/><text x="414" y="206" fill="#fff" font-family="Segoe UI, sans-serif" font-size="22" text-anchor="middle" font-weight="400">🚗</text><rect x="326" y="240" width="52" height="60" rx="10" fill="url(#accv)" opacity="0.85"/><text x="352" y="280" fill="#fff" font-family="Segoe UI, sans-serif" font-size="22" text-anchor="middle" font-weight="400">🌈</text><rect x="388" y="240" width="52" height="60" rx="10" fill="url(#acc)" opacity="0.85"/><text x="414" y="280" fill="#fff" font-family="Segoe UI, sans-serif" font-size="22" text-anchor="middle" font-weight="400">🐱</text></svg>