<svg viewBox="0 0 760 428" xmlns="http://www.w3.org/2000/svg" role="img" aria-label="Wave Studio Plus interface mockup" preserveAspectRatio="xMidYMid meet"><defs><linearGradient id="bg" x1="0" y1="0" x2="1" y2="1"><stop offset="0" stop-color="#0b0b20"/><stop offset="1" stop-color="#130a2a"/></linearGradient><linearGradient id="acc" x1="0" y1="0" x2="1" y2="0"><stop offset="0" stop-color="#3A86FF"/><stop offset="0.5" stop-color="#33E0FF"/><stop offset="1" stop-color="#C77DFF"/></linearGradient><linearGradient id="accv" x1="0" y1="1" x2="0" y2="0"><stop offset="0" stop-color="#3A86FF"/><stop offset="1" stop-color="#33E0FF"/></linearGradient></defs><rect x="1" y="1" width="758" height="426" rx="14" fill="url(#bg)" stroke="#3A86FF" stroke-opacity="0.35"/><rect x="1" y="1" width="758" height="34" rx="14" fill="#08081a"/><rect x="1" y="20" width="758" height="15" fill="#08081a"/><circle cx="24" cy="18" r="5" fill="#ff5f57"/><circle cx="42" cy="18" r="5" fill="#febc2e"/><circle cx="60" cy="18" r="5" fill="#28c840"/><text x="380" y="23" text-anchor="middle" fill="#9AA3C7" font-family="Segoe UI, sans-serif" font-size="12">Wave Studio Plus</text><rect x="16" y="46" width="150" height="366" rx="8" fill="#0d0d24" stroke="#3A86FF" stroke-opacity="0.4"/><rect x="24" y="56" width="134" height="48" rx="8" fill="#141432" stroke="#33E0FF" stroke-opacity="0.4"/><text x="34" y="76" fill="#fff" font-family="Segoe UI, sans-serif" font-size="11" text-anchor="start" font-weight="700">VOX</text><rect x="34" y="84" width="100" height="6" rx="3" fill="url(#acc)" opacity="0.5"/><rect x="178" y="56" width="540" height="48" rx="8" fill="#0c0c22" stroke="#C77DFF" stroke-opacity="0.4"/><polyline points="186,80 194,88 202,94 210,97 218,96 226,93 234,87 242,80 250,75 258,72 266,72 274,75 282,81 290,88 298,93 306,96 314,96 322,93 330,86 338,78 346,71 354,65 362,63 370,64 378,68 386,74 394,81 402,86 410,88 418,88 426,84 434,78 442,72 450,67 458,64 466,65 474,69 482,75 490,83 498,90 506,96 514,98 522,96 530,91 538,85 546,79 554,74 562,72 570,73 578,77 586,83 594,89 602,94 610,96 618,95 626,90 634,83 642,75 650,68 658,64 666,62 674,64 682,69 690,76 698,82" fill="none" stroke="url(#acc)" stroke-width="2" opacity="0.9"/><rect x="24" y="116" width="134" height="48" rx="8" fill="#141432" stroke="#33E0FF" stroke-opacity="0.4"/><text x="34" y="136" fill="#fff" font-family="Segoe UI, sans-serif" font-size="11" text-anchor="start" font-weight="700">GTR</text><rect x="34" y="144" width="100" height="6" rx="3" fill="url(#acc)" opacity="0.5"/><rect x="218" y="116" width="500" height="48" rx="8" fill="#0c0c22" stroke="#C77DFF" stroke-opacity="0.4"/><polyline points="226,158 233,155 241,149 248,141 256,134 263,128 270,126 278,126 285,130 292,136 300,142 307,147 314,149 322,148 329,144 337,138 344,131 351,125 359,122 366,122 374,126 381,132 388,140 396,147 403,153 410,155 418,154 425,150 432,144 440,138 447,133 455,131 462,133 469,137 477,143 484,150 492,155 499,158 506,157 514,153 521,146 528,138 536,131 543,126 550,125 558,126 565,131 573,137 580,143 587,147 595,149 602,147 610,142 617,136 624,129 632,124 639,122 646,123 654,128 661,135 668,143 676,150 683,154 691,156 698,153" fill="none" stroke="url(#acc)" stroke-width="2" opacity="0.9"/><rect x="24" y="176" width="134" height="48" rx="8" fill="#141432" stroke="#33E0FF" stroke-opacity="0.4"/><text x="34" y="196" fill="#fff" font-family="Segoe UI, sans-serif" font-size="11" text-anchor="start" font-weight="700">KEYS</text><rect x="34" y="204" width="100" height="6" rx="3" fill="url(#acc)" opacity="0.5"/><rect x="178" y="176" width="540" height="48" rx="8" fill="#0c0c22" stroke="#C77DFF" stroke-opacity="0.4"/><polyline points="186,191 194,185 202,181 210,181 218,184 226,190 234,197 242,205 250,210 258,212 266,211 274,207 282,201 290,195 298,191 306,190 314,191 322,196 330,203 338,210 346,216 354,219 362,219 370,215 378,209 386,201 394,194 402,189 410,187 418,189 426,193 434,199 442,205 450,209 458,210 466,208 474,203 482,196 490,189 498,183 506,181 514,182 522,186 530,193 538,200 546,207 554,212 562,213 570,211 578,206 586,200 594,195 602,191 610,190 618,193 626,198 634,205 642,212 650,217 658,219 666,218 674,213 682,206 690,198 698,192" fill="none" stroke="url(#acc)" stroke-width="2" opacity="0.9"/><rect x="24" y="236" width="134" height="48" rx="8" fill="#141432" stroke="#33E0FF" stroke-opacity="0.4"/><text x="34" y="256" fill="#fff" font-family="Segoe UI, sans-serif" font-size="11" text-anchor="start" font-weight="700">DRUM</text><rect x="34" y="264" width="100" height="6" rx="3" fill="url(#acc)" opacity="0.5"/><rect x="218" y="236" width="500" height="48" rx="8" fill="#0c0c22" stroke="#C77DFF" stroke-opacity="0.4"/><polyline points="226,249 233,254 241,261 248,269 256,275 263,279 270,279 278,276 285,270 292,263 300,256 307,252 314,250 322,252 329,256 337,262 344,268 351,271 359,273 366,270 374,265 381,258 388,250 396,244 403,241 410,241 418,245 425,251 432,258 440,265 447,269 455,270 462,268 469,264 477,258 484,252 492,248 499,248 506,251 514,256 521,264 528,271 536,277 543,279 550,279 558,274 565,268 573,260 580,254 587,250 595,250 602,252 610,257 617,263 624,268 632,271 639,272 646,268 654,262 661,255 668,248 676,243 683,240 691,242 698,247" fill="none" stroke="url(#acc)" stroke-width="2" opacity="0.9"/><rect x="170" y="46" width="574" height="14" rx="8" fill="#0a0a1e"/><line x1="186" y1="46" x2="186" y2="60" stroke="#33E0FF" stroke-opacity="0.3"/><line x1="232" y1="46" x2="232" y2="60" stroke="#33E0FF" stroke-opacity="0.3"/><line x1="278" y1="46" x2="278" y2="60" stroke="#33E0FF" stroke-opacity="0.3"/><line x1="324" y1="46" x2="324" y2="60" stroke="#33E0FF" stroke-opacity="0.3"/><line x1="370" y1="46" x2="370" y2="60" stroke="#33E0FF" stroke-opacity="0.3"/><line x1="416" y1="46" x2="416" y2="60" stroke="#33E0FF" stroke-opacity="0.3"/><line x1="462" y1="46" x2="462" y2="60" stroke="#33E0FF" stroke-opacity="0.3"/><line x1="508" y1="46" x2="508" y2="60" stroke="#33E0FF" stroke-opacity="0.3"/><line x1="554" y1="46" x2="554" y2="60" stroke="#33E0FF" stroke-opacity="0.3"/><line x1="600" y1="46" x2="600" y2="60" stroke="#33E0FF" stroke-opacity="0.3"/><line x1="646" y1="46" x2="646" y2="60" stroke="#33E0FF" stroke-opacity="0.3"/><line x1="692" y1="46" x2="692" y2="60" stroke="#33E0FF" stroke-opacity="0.3"/><line x1="430" y1="46" x2="430" y2="392" stroke="#FF5555" stroke-width="2"/><polygon points="424,46 436,46 430,56" fill="#FF5555"/><circle cx="210" cy="402" r="11" fill="#15153a" stroke="#9AA3C7" stroke-opacity="0.6"/><circle cx="210" cy="402" r="4" fill="#9AA3C7"/><circle cx="240" cy="402" r="11" fill="#15153a" stroke="#39FF6E" stroke-opacity="0.6"/><circle cx="240" cy="402" r="4" fill="#39FF6E"/><circle cx="270" cy="402" r="11" fill="#15153a" stroke="#9AA3C7" stroke-opacity="0.6"/><circle cx="270" cy="402" r="4" fill="#9AA3C7"/><circle cx="300" cy="402" r="11" fill="#15153a" stroke="#9AA3C7" stroke-opacity="0.6"/><circle cx="300" cy="402" r="4" fill="#9AA3C7"/><circle cx="330" cy="402" r="11" fill="#15153a" stroke="#FF5555" stroke-opacity="0.6"/><circle cx="330" cy="402" r="4" fill="#FF5555"/><rect x="540" y="392" width="120" height="22" rx="6" fill="#0a0a1e"/><text x="600" y="407" fill="#39FF6E" font-family="Segoe UI, sans-serif" font-size="14" text-anchor="middle" font-weight="700">00:42.318</text></svg>